<svg width="672" height="203" viewBox="0 0 672 203" fill="none" xmlns="http://www.w3.org/2000/svg">
<path d="M132.59 23.97C132.59 17.88 133.955 12.63 136.685 8.21998C139.625 3.59999 143.93 1.29 149.6 1.29C154.43 1.29 158.735 2.235 162.515 4.125C166.295 6.01499 168.185 9.16499 168.185 13.575C168.185 22.185 167.765 34.26 166.925 49.8C166.085 64.92 165.665 76.155 165.665 83.505C165.665 95.055 166.085 110.49 166.925 129.81C167.765 148.29 168.185 161.835 168.185 170.445C168.185 177.375 168.08 182.52 167.87 185.88C167.87 189.24 165.98 192.6 162.2 195.96C158.63 199.11 153.065 200.685 145.505 200.685C141.515 200.685 138.05 200.055 135.11 198.795C132.38 197.325 130.49 195.75 129.44 194.07C119.57 182.1 105.185 161.73 86.2848 132.96C65.0748 100.83 47.7497 76.26 34.3097 59.25C35.9897 74.37 36.8297 92.85 36.8297 114.69C36.8297 124.35 36.6197 136.95 36.1998 152.49C35.9898 167.82 35.5697 177.9 34.9397 182.73C34.0997 188.82 32.2097 193.545 29.2697 196.905C26.5397 200.055 22.1297 201.63 16.0397 201.63C11.4197 201.63 7.95475 200.37 5.64475 197.85C3.54475 195.12 2.28475 190.5 1.86475 183.99C1.65475 175.38 2.17975 162.465 3.43975 145.245C3.64975 142.515 3.96475 137.79 4.38475 131.07C4.80475 124.35 5.01475 118.365 5.01475 113.115C5.01475 98.625 4.27975 82.035 2.80975 63.345C1.54975 42.765 0.919747 27.54 0.919747 17.67C0.919747 12.63 2.70475 8.745 6.27475 6.01499C10.0547 3.28499 14.3597 1.91999 19.1897 1.91999C23.3897 1.91999 27.7997 2.96999 32.4197 5.06999C50.4798 27.75 74.9448 61.56 105.815 106.5L135.425 151.86C135.635 148.5 135.74 143.775 135.74 137.685C135.74 126.975 135.53 115.425 135.11 103.035C134.69 90.645 134.375 82.245 134.165 77.835C133.115 57.465 132.59 39.51 132.59 23.97ZM264.198 27.12C263.568 40.56 263.253 53.475 263.253 65.865C263.253 78.675 264.093 97.47 265.773 122.25C265.983 126.03 266.403 133.695 267.033 145.245C267.663 156.585 267.978 166.98 267.978 176.43C270.078 176.22 272.283 175.905 274.593 175.485C277.113 175.065 279.003 174.855 280.263 174.855C284.883 174.855 288.558 176.01 291.288 178.32C294.018 180.63 295.383 184.2 295.383 189.03C295.383 192.18 294.123 194.595 291.603 196.275C289.083 197.955 284.673 199.215 278.373 200.055C272.283 200.685 263.358 201 251.598 201C238.578 201 228.813 200.58 222.303 199.74C215.793 198.9 211.278 197.325 208.758 195.015C206.238 192.495 204.978 188.82 204.978 183.99C204.978 180.42 206.133 178.005 208.443 176.745C210.753 175.485 214.008 174.855 218.208 174.855L224.823 175.17L235.218 175.8L233.643 138.63C232.383 118.47 231.753 99.99 231.753 83.19C231.753 74.16 232.068 61.77 232.698 46.02L233.328 28.695C226.188 29.115 220.623 29.325 216.633 29.325C212.013 29.325 208.863 28.485 207.183 26.805C205.713 25.125 204.978 21.66 204.978 16.41C204.978 10.53 208.968 6.74999 216.948 5.06999C225.138 3.38998 237.528 2.54998 254.118 2.54998C266.928 2.54998 276.483 2.96998 282.783 3.80999C289.293 4.64999 292.548 6.53999 292.548 9.47999C292.548 16.62 290.973 21.345 287.823 23.655C284.883 25.755 279.108 26.805 270.498 26.805L264.198 27.12ZM473.688 148.71C481.668 156.69 487.968 163.62 492.588 169.5C497.418 175.17 499.833 180.105 499.833 184.305C499.833 190.185 498.153 194.595 494.793 197.535C491.643 200.475 487.653 201.945 482.823 201.945C479.463 201.945 475.998 200.265 472.428 196.905C468.858 193.545 465.603 189.975 462.663 186.195C459.723 182.415 457.833 180 456.993 178.95C452.163 173.07 442.713 161.31 428.643 143.67C414.783 125.82 405.123 113.01 399.663 105.24C397.983 106.29 395.463 108.39 392.103 111.54C390.843 112.59 387.588 115.32 382.338 119.73C377.088 123.93 371.313 128.235 365.013 132.645C365.013 133.905 365.328 143.355 365.958 160.995C366.378 174.015 366.588 182.52 366.588 186.51C366.588 189.87 365.433 193.335 363.123 196.905C360.813 200.265 357.348 201.945 352.728 201.945C346.008 201.945 341.178 200.79 338.238 198.48C335.298 196.17 333.513 192.81 332.883 188.4C331.203 178.32 330.363 168.345 330.363 158.475C330.363 147.555 331.203 131.595 332.883 110.595C334.563 90.855 335.403 76.05 335.403 66.18C335.403 62.4 335.193 56.94 334.773 49.8C334.563 44.13 333.933 38.88 332.883 34.05C332.043 27.33 331.623 22.605 331.623 19.875C331.623 13.155 333.093 8.32498 336.033 5.38498C338.973 2.44498 343.488 0.974984 349.578 0.974984C354.198 0.974984 357.978 2.33999 360.918 5.06999C364.068 7.58999 365.853 11.055 366.273 15.465C367.323 33.315 367.848 47.175 367.848 57.045C367.638 61.875 367.218 68.7 366.588 77.52C366.168 86.13 365.748 91.695 365.328 94.215C372.678 88.755 387.378 75.945 409.428 55.785C431.688 35.415 446.598 21.66 454.158 14.52C455.208 13.47 456.993 11.685 459.513 9.16499C462.243 6.43499 464.763 4.54499 467.073 3.49499C469.383 2.44499 471.903 1.91999 474.633 1.91999C478.413 1.91999 481.668 3.70499 484.398 7.275C487.338 10.635 488.808 14.31 488.808 18.3C488.808 20.61 487.863 23.13 485.973 25.86C484.293 28.38 481.248 31.845 476.838 36.255C461.508 52.215 444.498 68.805 425.808 86.025C430.638 93.795 438.618 105.03 449.748 119.73C461.088 134.22 469.068 143.88 473.688 148.71ZM671.501 180.84C671.711 185.25 671.186 188.4 669.926 190.29C668.666 191.97 666.146 193.755 662.366 195.645C656.696 198.375 649.976 200.16 642.206 201C634.646 201.84 624.881 202.26 612.911 202.26H591.491C572.801 202.26 558.941 199.11 549.911 192.81C540.881 186.3 535.211 178.53 532.901 169.5C530.591 160.47 529.226 148.815 528.806 134.535C528.596 129.705 528.491 122.565 528.491 113.115C528.491 92.535 530.276 65.025 533.846 30.585C534.896 20.505 538.571 13.26 544.871 8.85C551.171 4.22999 558.311 1.91999 566.291 1.91999C572.801 1.91999 583.406 1.70999 598.106 1.29L625.826 0.974984C637.166 0.974984 645.356 1.28999 650.396 1.91999C656.696 3.17999 661.421 4.64999 664.571 6.32999C667.721 7.8 669.401 10.425 669.611 14.205C669.611 18.405 668.246 22.5 665.516 26.49C662.786 30.48 658.586 32.475 652.916 32.475C646.406 32.475 637.061 32.055 624.881 31.215C612.701 30.375 603.461 29.955 597.161 29.955C591.491 29.955 586.346 30.27 581.726 30.9C575.846 31.32 571.646 32.055 569.126 33.105C566.606 34.155 565.241 35.94 565.031 38.46C562.721 61.35 561.776 77.31 562.196 86.34C567.026 86.97 571.856 87.285 576.686 87.285C581.516 87.285 588.131 86.865 596.531 86.025C598.631 85.815 601.256 85.605 604.406 85.395C607.556 85.185 611.126 85.08 615.116 85.08C617.426 85.08 621.101 85.29 626.141 85.71L635.906 86.025C645.566 86.025 650.396 89.49 650.396 96.42C650.396 100.62 649.241 103.98 646.931 106.5C644.621 109.02 640.526 110.91 634.646 112.17C626.666 113.64 613.751 114.375 595.901 114.375H576.686C572.696 114.375 567.761 114.165 561.881 113.745C561.671 117.525 561.566 122.985 561.566 130.125C561.566 139.365 561.671 145.875 561.881 149.655C562.511 164.355 572.696 171.705 592.436 171.705C599.156 171.705 606.296 171.915 613.856 172.335L625.511 172.65C630.971 172.65 635.486 172.125 639.056 171.075C642.626 169.815 646.091 168.765 649.451 167.925C653.021 166.875 656.276 166.35 659.216 166.35C663.206 166.35 666.251 167.925 668.351 171.075C670.451 174.015 671.501 177.27 671.501 180.84Z" fill="#FCFAFC"/>
</svg>
