<svg width="720" height="379" viewBox="0 0 720 379" fill="none" xmlns="http://www.w3.org/2000/svg">
<g clip-path="url(#clip0_5_4)">
<path fill-rule="evenodd" clip-rule="evenodd" d="M359.91 169.515L235.8 202.005C191.97 212.85 153.63 227.295 116.685 214.65C66.4649 192.96 67.3649 136.53 104.805 76.5C38.6099 131.13 -80.505 305.82 80.595 323.46C101.115 326.16 137.655 318.96 177.345 302.265L359.91 227.34L720 80.1L404.64 157.77L359.91 169.515Z" fill="#32BAB8" fill-opacity="0.25"/>
</g>
<path d="M162.59 122.47C162.59 116.38 163.955 111.13 166.685 106.72C169.625 102.1 173.93 99.79 179.6 99.79C184.43 99.79 188.735 100.735 192.515 102.625C196.295 104.515 198.185 107.665 198.185 112.075C198.185 120.685 197.765 132.76 196.925 148.3C196.085 163.42 195.665 174.655 195.665 182.005C195.665 193.555 196.085 208.99 196.925 228.31C197.765 246.79 198.185 260.335 198.185 268.945C198.185 275.875 198.08 281.02 197.87 284.38C197.87 287.74 195.98 291.1 192.2 294.46C188.63 297.61 183.065 299.185 175.505 299.185C171.515 299.185 168.05 298.555 165.11 297.295C162.38 295.825 160.49 294.25 159.44 292.57C149.57 280.6 135.185 260.23 116.285 231.46C95.0748 199.33 77.7497 174.76 64.3097 157.75C65.9897 172.87 66.8297 191.35 66.8297 213.19C66.8297 222.85 66.6197 235.45 66.1998 250.99C65.9898 266.32 65.5697 276.4 64.9397 281.23C64.0997 287.32 62.2097 292.045 59.2697 295.405C56.5397 298.555 52.1297 300.13 46.0397 300.13C41.4197 300.13 37.9547 298.87 35.6447 296.35C33.5447 293.62 32.2847 289 31.8647 282.49C31.6547 273.88 32.1797 260.965 33.4397 243.745C33.6497 241.015 33.9647 236.29 34.3847 229.57C34.8047 222.85 35.0147 216.865 35.0147 211.615C35.0147 197.125 34.2797 180.535 32.8097 161.845C31.5497 141.265 30.9197 126.04 30.9197 116.17C30.9197 111.13 32.7047 107.245 36.2747 104.515C40.0547 101.785 44.3597 100.42 49.1897 100.42C53.3897 100.42 57.7997 101.47 62.4197 103.57C80.4798 126.25 104.945 160.06 135.815 205L165.425 250.36C165.635 247 165.74 242.275 165.74 236.185C165.74 225.475 165.53 213.925 165.11 201.535C164.69 189.145 164.375 180.745 164.165 176.335C163.115 155.965 162.59 138.01 162.59 122.47ZM294.198 125.62C293.568 139.06 293.253 151.975 293.253 164.365C293.253 177.175 294.093 195.97 295.773 220.75C295.983 224.53 296.403 232.195 297.033 243.745C297.663 255.085 297.978 265.48 297.978 274.93C300.078 274.72 302.283 274.405 304.593 273.985C307.113 273.565 309.003 273.355 310.263 273.355C314.883 273.355 318.558 274.51 321.288 276.82C324.018 279.13 325.383 282.7 325.383 287.53C325.383 290.68 324.123 293.095 321.603 294.775C319.083 296.455 314.673 297.715 308.373 298.555C302.283 299.185 293.358 299.5 281.598 299.5C268.578 299.5 258.813 299.08 252.303 298.24C245.793 297.4 241.278 295.825 238.758 293.515C236.238 290.995 234.978 287.32 234.978 282.49C234.978 278.92 236.133 276.505 238.443 275.245C240.753 273.985 244.008 273.355 248.208 273.355L254.823 273.67L265.218 274.3L263.643 237.13C262.383 216.97 261.753 198.49 261.753 181.69C261.753 172.66 262.068 160.27 262.698 144.52L263.328 127.195C256.188 127.615 250.623 127.825 246.633 127.825C242.013 127.825 238.863 126.985 237.183 125.305C235.713 123.625 234.978 120.16 234.978 114.91C234.978 109.03 238.968 105.25 246.948 103.57C255.138 101.89 267.528 101.05 284.118 101.05C296.928 101.05 306.483 101.47 312.783 102.31C319.293 103.15 322.548 105.04 322.548 107.98C322.548 115.12 320.973 119.845 317.823 122.155C314.883 124.255 309.108 125.305 300.498 125.305L294.198 125.62ZM503.688 247.21C511.668 255.19 517.968 262.12 522.588 268C527.418 273.67 529.833 278.605 529.833 282.805C529.833 288.685 528.153 293.095 524.793 296.035C521.643 298.975 517.653 300.445 512.823 300.445C509.463 300.445 505.998 298.765 502.428 295.405C498.858 292.045 495.603 288.475 492.663 284.695C489.723 280.915 487.833 278.5 486.993 277.45C482.163 271.57 472.713 259.81 458.643 242.17C444.783 224.32 435.123 211.51 429.663 203.74C427.983 204.79 425.463 206.89 422.103 210.04C420.843 211.09 417.588 213.82 412.338 218.23C407.088 222.43 401.313 226.735 395.013 231.145C395.013 232.405 395.328 241.855 395.958 259.495C396.378 272.515 396.588 281.02 396.588 285.01C396.588 288.37 395.433 291.835 393.123 295.405C390.813 298.765 387.348 300.445 382.728 300.445C376.008 300.445 371.178 299.29 368.238 296.98C365.298 294.67 363.513 291.31 362.883 286.9C361.203 276.82 360.363 266.845 360.363 256.975C360.363 246.055 361.203 230.095 362.883 209.095C364.563 189.355 365.403 174.55 365.403 164.68C365.403 160.9 365.193 155.44 364.773 148.3C364.563 142.63 363.933 137.38 362.883 132.55C362.043 125.83 361.623 121.105 361.623 118.375C361.623 111.655 363.093 106.825 366.033 103.885C368.973 100.945 373.488 99.475 379.578 99.475C384.198 99.475 387.978 100.84 390.918 103.57C394.068 106.09 395.853 109.555 396.273 113.965C397.323 131.815 397.848 145.675 397.848 155.545C397.638 160.375 397.218 167.2 396.588 176.02C396.168 184.63 395.748 190.195 395.328 192.715C402.678 187.255 417.378 174.445 439.428 154.285C461.688 133.915 476.598 120.16 484.158 113.02C485.208 111.97 486.993 110.185 489.513 107.665C492.243 104.935 494.763 103.045 497.073 101.995C499.383 100.945 501.903 100.42 504.633 100.42C508.413 100.42 511.668 102.205 514.398 105.775C517.338 109.135 518.808 112.81 518.808 116.8C518.808 119.11 517.863 121.63 515.973 124.36C514.293 126.88 511.248 130.345 506.838 134.755C491.508 150.715 474.498 167.305 455.808 184.525C460.638 192.295 468.618 203.53 479.748 218.23C491.088 232.72 499.068 242.38 503.688 247.21ZM701.501 279.34C701.711 283.75 701.186 286.9 699.926 288.79C698.666 290.47 696.146 292.255 692.366 294.145C686.696 296.875 679.976 298.66 672.206 299.5C664.646 300.34 654.881 300.76 642.911 300.76H621.491C602.801 300.76 588.941 297.61 579.911 291.31C570.881 284.8 565.211 277.03 562.901 268C560.591 258.97 559.226 247.315 558.806 233.035C558.596 228.205 558.491 221.065 558.491 211.615C558.491 191.035 560.276 163.525 563.846 129.085C564.896 119.005 568.571 111.76 574.871 107.35C581.171 102.73 588.311 100.42 596.291 100.42C602.801 100.42 613.406 100.21 628.106 99.79L655.826 99.475C667.166 99.475 675.356 99.79 680.396 100.42C686.696 101.68 691.421 103.15 694.571 104.83C697.721 106.3 699.401 108.925 699.611 112.705C699.611 116.905 698.246 121 695.516 124.99C692.786 128.98 688.586 130.975 682.916 130.975C676.406 130.975 667.061 130.555 654.881 129.715C642.701 128.875 633.461 128.455 627.161 128.455C621.491 128.455 616.346 128.77 611.726 129.4C605.846 129.82 601.646 130.555 599.126 131.605C596.606 132.655 595.241 134.44 595.031 136.96C592.721 159.85 591.776 175.81 592.196 184.84C597.026 185.47 601.856 185.785 606.686 185.785C611.516 185.785 618.131 185.365 626.531 184.525C628.631 184.315 631.256 184.105 634.406 183.895C637.556 183.685 641.126 183.58 645.116 183.58C647.426 183.58 651.101 183.79 656.141 184.21L665.906 184.525C675.566 184.525 680.396 187.99 680.396 194.92C680.396 199.12 679.241 202.48 676.931 205C674.621 207.52 670.526 209.41 664.646 210.67C656.666 212.14 643.751 212.875 625.901 212.875H606.686C602.696 212.875 597.761 212.665 591.881 212.245C591.671 216.025 591.566 221.485 591.566 228.625C591.566 237.865 591.671 244.375 591.881 248.155C592.511 262.855 602.696 270.205 622.436 270.205C629.156 270.205 636.296 270.415 643.856 270.835L655.511 271.15C660.971 271.15 665.486 270.625 669.056 269.575C672.626 268.315 676.091 267.265 679.451 266.425C683.021 265.375 686.276 264.85 689.216 264.85C693.206 264.85 696.251 266.425 698.351 269.575C700.451 272.515 701.501 275.77 701.501 279.34Z" fill="#252525"/>
<defs>
<clipPath id="clip0_5_4">
<rect width="720" height="248" fill="white" transform="translate(0 76)"/>
</clipPath>
</defs>
</svg>
